<?xml version="1.0" encoding="iso-8859-1"?>
<!-- Generator: Adobe Illustrator 19.0.0, SVG Export Plug-In . SVG Version: 6.00 Build 0)  -->
<svg version="1.1" id="Capa_1" xmlns="http://www.w3.org/2000/svg" xmlns:xlink="http://www.w3.org/1999/xlink" x="0px" y="0px"
	 viewBox="0 0 512 512" style="enable-background:new 0 0 512 512;" xml:space="preserve">
<path style="fill:#FD003A;" d="M512,76v45l-30,30H30L0,121V76c0-24.901,20.099-46,45-46h422C491.901,30,512,51.099,512,76z"/>
<path style="fill:#E50027;" d="M512,76v45l-30,30H256V30h211C491.901,30,512,51.099,512,76z"/>
<path style="fill:#FD003A;" d="M512,452v15c0,24.901-20.099,45-45,45H45c-24.901,0-45-20.099-45-45v-15l30-31h452L512,452z"/>
<path style="fill:#E50027;" d="M512,452v15c0,24.901-20.099,45-45,45H256v-91h226L512,452z"/>
<rect y="121" style="fill:#E1E4FB;" width="512" height="331"/>
<rect x="256" y="121" style="fill:#C5C9F7;" width="256" height="331"/>
<g>
	<path style="fill:#0D70B2;" d="M75,91c-8.291,0-15-6.709-15-15V15c0-8.291,6.709-15,15-15s15,6.709,15,15v61
		C90,84.291,83.291,91,75,91z"/>
	<path style="fill:#0D70B2;" d="M166,91c-8.291,0-15-6.709-15-15V15c0-8.291,6.709-15,15-15s15,6.709,15,15v61
		C181,84.291,174.291,91,166,91z"/>
</g>
<g>
	<path style="fill:#095C92;" d="M346,91c-8.291,0-15-6.709-15-15V15c0-8.291,6.709-15,15-15s15,6.709,15,15v61
		C361,84.291,354.291,91,346,91z"/>
	<path style="fill:#095C92;" d="M437,91c-8.291,0-15-6.709-15-15V15c0-8.291,6.709-15,15-15s15,6.709,15,15v61
		C452,84.291,445.291,91,437,91z"/>
</g>
<path style="fill:#0D70B2;" d="M271,15v61c0,8.401-6.599,15-15,15s-15-6.599-15-15V15c0-8.401,6.599-15,15-15S271,6.599,271,15z"/>
<path style="fill:#095C92;" d="M271,15v61c0,8.401-6.599,15-15,15V0C264.401,0,271,6.599,271,15z"/>
<path style="fill:#17ACE8;" d="M363.401,260.2c-1.8-5.4-6.601-9.6-12.301-10.201l-57.299-8.399l-25.8-52.2
	c-2.1-4.501-6.901-7.202-12.001-7.5c-6-0.601-12.299,1.8-15,7.5l-25.8,52.2l-57.601,8.4c-5.698,0.601-10.199,4.801-11.999,10.201
	s-0.3,11.4,3.9,15.3L190.9,316l-9.6,57.599c-1.201,5.4,1.199,11.1,6,14.401c4.499,3.6,10.499,3.9,15.599,1.199l51.601-27.001
	l1.5,0.901l50.099,26.1c4.801,2.701,11.1,2.401,15.601-1.199c4.799-3.301,6.899-9.001,6-14.401L317.8,316l41.7-40.499
	C363.701,271.601,365.2,265.6,363.401,260.2z"/>
<path style="fill:#1689FC;" d="M359.5,275.501L317.8,316l9.901,57.599c0.899,5.4-1.201,11.1-6,14.401
	c-4.501,3.6-10.8,3.9-15.601,1.199L256,363.1V181.901c5.099,0.298,9.901,2.999,12.001,7.5l25.8,52.2L351.099,250
	c5.7,0.601,10.501,4.801,12.301,10.201S363.701,271.601,359.5,275.501z"/>
<g>
</g>
<g>
</g>
<g>
</g>
<g>
</g>
<g>
</g>
<g>
</g>
<g>
</g>
<g>
</g>
<g>
</g>
<g>
</g>
<g>
</g>
<g>
</g>
<g>
</g>
<g>
</g>
<g>
</g>
</svg>
