<?xml version="1.0" encoding="iso-8859-1"?>
<!-- Generator: Adobe Illustrator 19.0.0, SVG Export Plug-In . SVG Version: 6.00 Build 0)  -->
<svg version="1.1" id="Capa_1" xmlns="http://www.w3.org/2000/svg" xmlns:xlink="http://www.w3.org/1999/xlink" x="0px" y="0px"
	 viewBox="0 0 512 512" style="enable-background:new 0 0 512 512;" xml:space="preserve">
<path style="fill:#FD3C65;" d="M391,26.1V135l-30,16H30L0,120V45C0,20.099,20.099,0,45,0h316L391,26.1z"/>
<polygon style="fill:#FD003A;" points="391,26.1 391,135 361,151 256,151 256,0 361,0 "/>
<path style="fill:#004A7B;" d="M467,0H361v151h121l30-31V45C512,20.186,491.814,0,467,0z"/>
<path style="fill:#E1E4FB;" d="M512,120v347c0,24.901-20.099,45-45,45H45c-24.901,0-45-20.099-45-45V120H512z"/>
<path style="fill:#C5C9F7;" d="M512,120v347c0,24.901-20.099,45-45,45H256V120H512z"/>
<g>
	<path style="fill:#004A7B;" d="M106,90H76c-8.291,0-15-6.709-15-15s6.709-15,15-15h30c8.291,0,15,6.709,15,15S114.291,90,106,90z"
		/>
	<path style="fill:#004A7B;" d="M196,90h-30c-8.291,0-15-6.709-15-15s6.709-15,15-15h30c8.291,0,15,6.709,15,15S204.291,90,196,90z"
		/>
	<path style="fill:#004A7B;" d="M301,75c0,8.401-6.599,15-15,15h-30c-8.401,0-15-6.599-15-15s6.599-15,15-15h30
		C294.401,60,301,66.599,301,75z"/>
</g>
<path style="fill:#00345B;" d="M301,75c0,8.401-6.599,15-15,15h-30V60h30C294.401,60,301,66.599,301,75z"/>
<path style="fill:#004A7B;" d="M451,196v226.399L256,445.5l-37.2,4.5H76c-8.401,0-15-6.601-15-15V196c0-8.401,6.599-15,15-15h360
	C444.401,181,451,187.599,451,196z"/>
<path style="fill:#00345B;" d="M451,196v226.399L256,445.5V181h180C444.401,181,451,187.599,451,196z"/>
<path style="fill:#5DAD1D;" d="M201.7,359.399l1.843,40.881L139.3,450H74.2l80.4-114.6c2.701-3.3,6.601-5.099,10.8-5.4
	c4.2-0.3,8.101,1.5,11.1,4.499L201.7,359.399z"/>
<path style="fill:#FEDB41;" d="M166,315c-24.814,0-45-20.186-45-45s20.186-45,45-45s45,20.186,45,45S190.814,315,166,315z"/>
<path style="fill:#66BD21;" d="M318.1,325.8L301,384.6l-45,35.7L218.8,450h-79.5l62.401-90.601l54.3-79.2l2.701-3.9
	c5.7-7.798,18.898-7.798,24.598,0L318.1,325.8z"/>
<g>
	<path style="fill:#6ECD24;" d="M318.1,325.8L301,384.6l-45,35.7V280.199l2.701-3.9c5.7-7.798,18.898-7.798,24.598,0L318.1,325.8z"
		/>
	<path style="fill:#6ECD24;" d="M451,422.399V435c0,8.399-6.599,15-15,15H218.8l37.2-46.5l62.1-77.701L333.999,306
		c5.7-7.5,18.301-7.5,24.001,0L451,422.399z"/>
</g>
<path style="fill:#98D400;" d="M451,422.399V435c0,8.399-6.599,15-15,15H256v-46.5l62.1-77.701L333.999,306
	c5.7-7.5,18.301-7.5,24.001,0L451,422.399z"/>
<g>
</g>
<g>
</g>
<g>
</g>
<g>
</g>
<g>
</g>
<g>
</g>
<g>
</g>
<g>
</g>
<g>
</g>
<g>
</g>
<g>
</g>
<g>
</g>
<g>
</g>
<g>
</g>
<g>
</g>
</svg>
